# xmcd
#
# Track frame offsets:
#	150
#	20340
#	34723
#	47229
#	63733
#	77635
#	87450
#	97473
#	117556
#	143222
#	146257
#	160954
#	176697
#	193223
#	209685
#	225528
#
# Disc length: 3310 seconds
#
# Revision: 1
# Processed by: cddbd v1.5PL3 Copyright (c) Steve Scherf et al.
# Submitted via: audiograbber 1.82.02
#
DISCID=f00cec10
DTITLE=Dennis Marsh - Live In Concert
DYEAR=1900
DGENRE=
TTITLE0=Opener- Good Hearted Woman
TTITLE1=Maku
TTITLE2=Member Of A Country Club
TTITLE3=Help Me Make It Thru' The Night
TTITLE4=He Touched Me
TTITLE5=Interval/Instrumental
TTITLE6=Yakety Axe/Instrumental
TTITLE7=Storms Never Last
TTITLE8=I Only See You
TTITLE9=Patter
TTITLE10=I Can't Help Falling In Love
TTITLE11=Happy Anniversary
TTITLE12=Chase Each Other 'Round The Room
TTITLE13=Half Way To Paradise 
TTITLE14=Padre
TTITLE15=The Mountain
EXTD=
EXTT0=
EXTT1=
EXTT2=
EXTT3=
EXTT4=
EXTT5=
EXTT6=
EXTT7=
EXTT8=
EXTT9=
EXTT10=
EXTT11=
EXTT12=
EXTT13=
EXTT14=
EXTT15=
PLAYORDER=
